<?plantuml 1.2026.1?><svg xmlns="http://www.w3.org/2000/svg" xmlns:xlink="http://www.w3.org/1999/xlink" contentStyleType="text/css" data-diagram-type="DESCRIPTION" height="1628px" preserveAspectRatio="none" style="width:1096px;height:1628px;background:#FEFEFE;" version="1.1" viewBox="0 0 1096 1628" width="1096px" zoomAndPan="magnify"><title>**AI Coding Agent Threat Model &#8212; Data Flow Diagram**
//Mapping the 4 Mindgard Attack Vectors Across Trust Boundaries//</title><defs/><g><rect fill="#FEFEFE" height="1628" style="stroke:none;stroke-width:1;" width="1096" x="0" y="0"/><g class="title" data-source-line="12"><text fill="#000000" font-family="'Segoe UI'" font-size="22" font-weight="bold" lengthAdjust="spacing" textLength="595.2568" x="246.3264" y="42.2695">AI Coding Agent Threat Model &#8212; Data Flow Diagram</text><text fill="#000000" font-family="'Segoe UI'" font-size="22" font-style="italic" font-weight="bold" lengthAdjust="spacing" textLength="737.7197" x="175.095" y="68.1797">Mapping the 4 Mindgard Attack Vectors Across Trust Boundaries</text></g><!--cluster internet--><g class="cluster" data-qualified-name="internet" data-source-line="18" id="ent0003"><path d="M320,262.7803 L493.8184,262.7803 A6,6 0 0 1 497.8184,266.7803 L504.8184,293.7354 L670,293.7354 A4,4 0 0 1 674,297.7354 L674,417.5103 A4,4 0 0 1 670,421.5103 L320,421.5103 A4,4 0 0 1 316,417.5103 L316,266.7803 A4,4 0 0 1 320,262.7803" fill="#FFF3E0" style="stroke:#000000;stroke-width:1;"/><line style="stroke:#000000;stroke-width:1;" x1="316" x2="504.8184" y1="293.7354" y2="293.7354"/><text fill="#000000" font-family="'Segoe UI'" font-size="11" font-weight="bold" lengthAdjust="spacing" textLength="163.8184" x="326" y="281.4151">Trust Boundary: The Internet</text></g><!--cluster workspace--><g class="cluster" data-qualified-name="workspace" data-source-line="31" id="ent0008"><path d="M313,508.5103 L503.1196,508.5103 A6,6 0 0 1 507.1196,512.5103 L514.1196,539.4654 L996,539.4654 A4,4 0 0 1 1000,543.4654 L1000,637.4203 A4,4 0 0 1 996,641.4203 L313,641.4203 A4,4 0 0 1 309,637.4203 L309,512.5103 A4,4 0 0 1 313,508.5103" fill="#E3F2FD" style="stroke:#000000;stroke-width:1;"/><line style="stroke:#000000;stroke-width:1;" x1="309" x2="514.1196" y1="539.4654" y2="539.4654"/><text fill="#000000" font-family="'Segoe UI'" font-size="11" font-weight="bold" lengthAdjust="spacing" textLength="180.1196" x="319" y="527.1451">Trust Boundary: The Workspace</text></g><!--cluster ide--><g class="cluster" data-qualified-name="ide" data-source-line="38" id="ent0012"><path d="M270,707.4203 L433.2642,707.4203 A6,6 0 0 1 437.2642,711.4203 L444.2642,738.3754 L801,738.3754 A4,4 0 0 1 805,742.3754 L805,830.3303 A4,4 0 0 1 801,834.3303 L270,834.3303 A4,4 0 0 1 266,830.3303 L266,711.4203 A4,4 0 0 1 270,707.4203" fill="#E8F5E9" style="stroke:#000000;stroke-width:1;"/><line style="stroke:#000000;stroke-width:1;" x1="266" x2="444.2642" y1="738.3754" y2="738.3754"/><text fill="#000000" font-family="'Segoe UI'" font-size="11" font-weight="bold" lengthAdjust="spacing" textLength="153.2642" x="276" y="726.0551">Trust Boundary: The AI IDE</text></g><!--cluster sandbox--><g class="cluster" data-qualified-name="sandbox" data-source-line="45" id="ent0016"><path d="M15,913.3303 L191.9927,913.3303 A6,6 0 0 1 195.9927,917.3303 L202.9927,944.2854 L217,944.2854 A4,4 0 0 1 221,948.2854 L221,1244.5603 A4,4 0 0 1 217,1248.5603 L15,1248.5603 A4,4 0 0 1 11,1244.5603 L11,917.3303 A4,4 0 0 1 15,913.3303" fill="#E0F7FA" style="stroke:#000000;stroke-width:1;"/><line style="stroke:#000000;stroke-width:1;" x1="11" x2="202.9927" y1="944.2854" y2="944.2854"/><text fill="#000000" font-family="'Segoe UI'" font-size="11" font-weight="bold" lengthAdjust="spacing" textLength="166.9927" x="21" y="931.9651">Trust Boundary: The Sandbox</text></g><!--cluster hostos--><g class="cluster" data-qualified-name="hostos" data-source-line="57" id="ent0021"><path d="M371,1106.2403 L545.1675,1106.2403 A6,6 0 0 1 549.1675,1110.2403 L556.1675,1137.1954 L849,1137.1954 A4,4 0 0 1 853,1141.1954 L853,1241.1003 A4,4 0 0 1 849,1245.1003 L371,1245.1003 A4,4 0 0 1 367,1241.1003 L367,1110.2403 A4,4 0 0 1 371,1106.2403" fill="#F3E5F5" style="stroke:#000000;stroke-width:1;"/><line style="stroke:#000000;stroke-width:1;" x1="367" x2="556.1675" y1="1137.1954" y2="1137.1954"/><text fill="#000000" font-family="'Segoe UI'" font-size="11" font-weight="bold" lengthAdjust="spacing" textLength="164.1675" x="377" y="1124.8751">Trust Boundary: The Host OS</text></g><!--entity repo--><g class="entity" data-qualified-name="internet.repo" data-source-line="19" id="ent0004"><rect fill="#FFE0B2" height="57.9102" rx="35" ry="35" style="stroke:#000000;stroke-width:1;" width="107.394" x="332.3" y="326.6903"/><text fill="#000000" font-family="'Segoe UI'" font-size="11" lengthAdjust="spacing" textLength="49.9136" x="348.3" y="353.3251">Malicious</text><text fill="#000000" font-family="'Segoe UI'" font-size="11" lengthAdjust="spacing" textLength="15.2432" x="348.3" y="366.2802">Git</text><text fill="#000000" font-family="'Segoe UI'" font-size="11" lengthAdjust="spacing" textLength="3.4805" x="363.5432" y="366.2802">&#160;</text><text fill="#000000" font-family="'Segoe UI'" font-size="11" lengthAdjust="spacing" textLength="56.6704" x="367.0236" y="366.2802">Repository</text></g><g class="entity" data-qualified-name="internet.GMN5" data-source-line="21" id="ent0006"><path d="M499.71,309.7803 L499.71,351.6403 L439.9,355.6403 L499.71,359.6403 L499.71,401.5108 A4,4 0 0 0 503.71,405.5108 L654.2808,405.5108 A4,4 0 0 0 658.2808,401.5108 L658.2808,315.7803 L648.2808,305.7803 L503.71,305.7803 A4,4 0 0 0 499.71,309.7803" fill="#FFFFFF" style="stroke:#000000;stroke-width:1;"/><path d="M648.2808,305.7803 L648.2808,313.7803 A2,2 0 0 0 650.2808,315.7803 L658.2808,315.7803 L648.2808,305.7803" fill="#FFFFFF" style="stroke:#000000;stroke-width:1;"/><text fill="#000000" font-family="'Segoe UI'" font-size="11" lengthAdjust="spacing" textLength="50.4775" x="511.71" y="327.4151">Contains:</text><text fill="#000000" font-family="'Segoe UI'" font-size="11" lengthAdjust="spacing" textLength="6.166" x="511.71" y="340.3702">&#8226;</text><text fill="#000000" font-family="'Segoe UI'" font-size="11" lengthAdjust="spacing" textLength="3.4805" x="517.876" y="340.3702">&#160;</text><text fill="#000000" font-family="'Segoe UI'" font-size="11" lengthAdjust="spacing" textLength="102.5396" x="521.3565" y="340.3702">.codex/config.toml</text><text fill="#000000" font-family="'Segoe UI'" font-size="11" lengthAdjust="spacing" textLength="6.166" x="511.71" y="353.3252">&#8226;</text><text fill="#000000" font-family="'Segoe UI'" font-size="11" lengthAdjust="spacing" textLength="3.4805" x="517.876" y="353.3252">&#160;</text><text fill="#000000" font-family="'Segoe UI'" font-size="11" lengthAdjust="spacing" textLength="114.1465" x="521.3565" y="353.3252">.gemini/settings.json</text><text fill="#000000" font-family="'Segoe UI'" font-size="11" lengthAdjust="spacing" textLength="6.166" x="511.71" y="366.2803">&#8226;</text><text fill="#000000" font-family="'Segoe UI'" font-size="11" lengthAdjust="spacing" textLength="3.4805" x="517.876" y="366.2803">&#160;</text><text fill="#000000" font-family="'Segoe UI'" font-size="11" lengthAdjust="spacing" textLength="52.3252" x="521.3565" y="366.2803">.mcp.json</text><text fill="#000000" font-family="'Segoe UI'" font-size="11" lengthAdjust="spacing" textLength="6.166" x="511.71" y="379.2354">&#8226;</text><text fill="#000000" font-family="'Segoe UI'" font-size="11" lengthAdjust="spacing" textLength="3.4805" x="517.876" y="379.2354">&#160;</text><text fill="#000000" font-family="'Segoe UI'" font-size="11" lengthAdjust="spacing" textLength="59.4526" x="521.3565" y="379.2354">Adversarial</text><text fill="#000000" font-family="'Segoe UI'" font-size="11" lengthAdjust="spacing" textLength="3.4805" x="580.8091" y="379.2354">&#160;</text><text fill="#000000" font-family="'Segoe UI'" font-size="11" lengthAdjust="spacing" textLength="14.604" x="584.2896" y="379.2354">dir</text><text fill="#000000" font-family="'Segoe UI'" font-size="11" lengthAdjust="spacing" textLength="3.4805" x="598.8936" y="379.2354">&#160;</text><text fill="#000000" font-family="'Segoe UI'" font-size="11" lengthAdjust="spacing" textLength="34.9067" x="602.3741" y="379.2354">names</text><text fill="#000000" font-family="'Segoe UI'" font-size="11" lengthAdjust="spacing" textLength="6.166" x="511.71" y="392.1905">&#8226;</text><text fill="#000000" font-family="'Segoe UI'" font-size="11" lengthAdjust="spacing" textLength="3.4805" x="517.876" y="392.1905">&#160;</text><text fill="#000000" font-family="'Segoe UI'" font-size="11" lengthAdjust="spacing" textLength="48.2593" x="521.3565" y="392.1905">Poisoned</text><text fill="#000000" font-family="'Segoe UI'" font-size="11" lengthAdjust="spacing" textLength="3.4805" x="569.6158" y="392.1905">&#160;</text><text fill="#000000" font-family="'Segoe UI'" font-size="11" lengthAdjust="spacing" textLength="45.8315" x="573.0962" y="392.1905">commits</text></g><!--entity configs--><g class="entity" data-qualified-name="workspace.configs" data-source-line="32" id="ent0009"><rect fill="#BBDEFB" height="53.9102" rx="4" ry="4" style="stroke:#000000;stroke-width:1;" width="155.542" x="381.23" y="563.5103"/><rect fill="#BBDEFB" height="53.9102" rx="4" ry="4" style="stroke:#000000;stroke-width:1;" width="155.542" x="377.23" y="559.5103"/><text fill="#000000" font-family="'Segoe UI'" font-size="11" lengthAdjust="spacing" textLength="35.2773" x="391.23" y="584.1451">Config</text><text fill="#000000" font-family="'Segoe UI'" font-size="11" lengthAdjust="spacing" textLength="3.4805" x="426.5073" y="584.1451">&#160;</text><text fill="#000000" font-family="'Segoe UI'" font-size="11" lengthAdjust="spacing" textLength="23.9927" x="429.9878" y="584.1451">Files</text><text fill="#000000" font-family="'Segoe UI'" font-size="11" lengthAdjust="spacing" textLength="59.3828" x="391.23" y="597.1002">(.mcp.json,</text><text fill="#000000" font-family="'Segoe UI'" font-size="11" lengthAdjust="spacing" textLength="3.4805" x="450.6128" y="597.1002">&#160;</text><text fill="#000000" font-family="'Segoe UI'" font-size="11" lengthAdjust="spacing" textLength="64.6787" x="454.0933" y="597.1002">config.toml)</text></g><!--entity rules--><g class="entity" data-qualified-name="workspace.rules" data-source-line="33" id="ent0010"><rect fill="#BBDEFB" height="53.9102" rx="4" ry="4" style="stroke:#000000;stroke-width:1;" width="161.1064" x="600.45" y="563.5103"/><rect fill="#BBDEFB" height="53.9102" rx="4" ry="4" style="stroke:#000000;stroke-width:1;" width="161.1064" x="596.45" y="559.5103"/><text fill="#000000" font-family="'Segoe UI'" font-size="11" lengthAdjust="spacing" textLength="45.4878" x="610.45" y="584.1451">Behavior</text><text fill="#000000" font-family="'Segoe UI'" font-size="11" lengthAdjust="spacing" textLength="3.4805" x="655.9378" y="584.1451">&#160;</text><text fill="#000000" font-family="'Segoe UI'" font-size="11" lengthAdjust="spacing" textLength="28.6978" x="659.4183" y="584.1451">Rules</text><text fill="#000000" font-family="'Segoe UI'" font-size="11" lengthAdjust="spacing" textLength="70.6084" x="610.45" y="597.1002">(.cursorrules,</text><text fill="#000000" font-family="'Segoe UI'" font-size="11" lengthAdjust="spacing" textLength="3.4805" x="681.0584" y="597.1002">&#160;</text><text fill="#000000" font-family="'Segoe UI'" font-size="11" lengthAdjust="spacing" textLength="59.0176" x="684.5389" y="597.1002">claude.md)</text></g><!--entity source--><g class="entity" data-qualified-name="workspace.source" data-source-line="34" id="ent0011"><rect fill="#BBDEFB" height="53.9102" rx="4" ry="4" style="stroke:#000000;stroke-width:1;" width="150.1172" x="825.94" y="563.5103"/><rect fill="#BBDEFB" height="53.9102" rx="4" ry="4" style="stroke:#000000;stroke-width:1;" width="150.1172" x="821.94" y="559.5103"/><text fill="#000000" font-family="'Segoe UI'" font-size="11" lengthAdjust="spacing" textLength="35.7715" x="835.94" y="584.1451">Source</text><text fill="#000000" font-family="'Segoe UI'" font-size="11" lengthAdjust="spacing" textLength="3.4805" x="871.7115" y="584.1451">&#160;</text><text fill="#000000" font-family="'Segoe UI'" font-size="11" lengthAdjust="spacing" textLength="7.6699" x="875.192" y="584.1451">&amp;</text><text fill="#000000" font-family="'Segoe UI'" font-size="11" lengthAdjust="spacing" textLength="3.4805" x="882.8619" y="584.1451">&#160;</text><text fill="#000000" font-family="'Segoe UI'" font-size="11" lengthAdjust="spacing" textLength="21.5273" x="886.3423" y="584.1451">Dirs</text><text fill="#000000" font-family="'Segoe UI'" font-size="11" lengthAdjust="spacing" textLength="51.063" x="835.94" y="597.1002">(directory</text><text fill="#000000" font-family="'Segoe UI'" font-size="11" lengthAdjust="spacing" textLength="3.4805" x="887.003" y="597.1002">&#160;</text><text fill="#000000" font-family="'Segoe UI'" font-size="11" lengthAdjust="spacing" textLength="38.3872" x="890.4835" y="597.1002">names,</text><text fill="#000000" font-family="'Segoe UI'" font-size="11" lengthAdjust="spacing" textLength="3.4805" x="928.8707" y="597.1002">&#160;</text><text fill="#000000" font-family="'Segoe UI'" font-size="11" lengthAdjust="spacing" textLength="25.7061" x="932.3511" y="597.1002">.env)</text></g><!--entity executor--><g class="entity" data-qualified-name="ide.executor" data-source-line="39" id="ent0013"><rect fill="#C8E6C9" height="67.9102" rx="4" ry="4" style="stroke:#000000;stroke-width:1;" width="130.6167" x="281.69" y="750.4203"/><rect fill="#C8E6C9" height="10" style="stroke:#000000;stroke-width:1;" width="15" x="392.3067" y="755.4203"/><rect fill="#C8E6C9" height="2" style="stroke:#000000;stroke-width:1;" width="4" x="390.3067" y="757.4203"/><rect fill="#C8E6C9" height="2" style="stroke:#000000;stroke-width:1;" width="4" x="390.3067" y="761.4203"/><text fill="#000000" font-family="'Segoe UI'" font-size="11" lengthAdjust="spacing" textLength="23.6489" x="302.69" y="787.0551">Tool</text><text fill="#000000" font-family="'Segoe UI'" font-size="11" lengthAdjust="spacing" textLength="3.4805" x="326.3389" y="787.0551">&#160;</text><text fill="#000000" font-family="'Segoe UI'" font-size="11" lengthAdjust="spacing" textLength="51.4873" x="329.8194" y="787.0551">Discovery</text><text fill="#000000" font-family="'Segoe UI'" font-size="11" lengthAdjust="spacing" textLength="7.6699" x="302.69" y="800.0102">&amp;</text><text fill="#000000" font-family="'Segoe UI'" font-size="11" lengthAdjust="spacing" textLength="3.4805" x="310.3599" y="800.0102">&#160;</text><text fill="#000000" font-family="'Segoe UI'" font-size="11" lengthAdjust="spacing" textLength="46.6694" x="313.8404" y="800.0102">Executor</text></g><!--entity loader--><g class="entity" data-qualified-name="ide.loader" data-source-line="40" id="ent0014"><rect fill="#C8E6C9" height="67.9102" rx="4" ry="4" style="stroke:#000000;stroke-width:1;" width="127.0073" x="472.5" y="750.4203"/><rect fill="#C8E6C9" height="10" style="stroke:#000000;stroke-width:1;" width="15" x="579.5073" y="755.4203"/><rect fill="#C8E6C9" height="2" style="stroke:#000000;stroke-width:1;" width="4" x="577.5073" y="757.4203"/><rect fill="#C8E6C9" height="2" style="stroke:#000000;stroke-width:1;" width="4" x="577.5073" y="761.4203"/><text fill="#000000" font-family="'Segoe UI'" font-size="11" lengthAdjust="spacing" textLength="35.2773" x="493.5" y="787.0551">Config</text><text fill="#000000" font-family="'Segoe UI'" font-size="11" lengthAdjust="spacing" textLength="3.4805" x="528.7773" y="787.0551">&#160;</text><text fill="#000000" font-family="'Segoe UI'" font-size="11" lengthAdjust="spacing" textLength="36.2495" x="532.2578" y="787.0551">Loader</text><text fill="#000000" font-family="'Segoe UI'" font-size="11" lengthAdjust="spacing" textLength="7.6699" x="493.5" y="800.0102">&amp;</text><text fill="#000000" font-family="'Segoe UI'" font-size="11" lengthAdjust="spacing" textLength="3.4805" x="501.1699" y="800.0102">&#160;</text><text fill="#000000" font-family="'Segoe UI'" font-size="11" lengthAdjust="spacing" textLength="28.0049" x="504.6504" y="800.0102">Trust</text><text fill="#000000" font-family="'Segoe UI'" font-size="11" lengthAdjust="spacing" textLength="3.4805" x="532.6553" y="800.0102">&#160;</text><text fill="#000000" font-family="'Segoe UI'" font-size="11" lengthAdjust="spacing" textLength="10.7905" x="536.1357" y="800.0102">UI</text></g><!--entity agent--><g class="entity" data-qualified-name="ide.agent" data-source-line="41" id="ent0015"><rect fill="#C8E6C9" height="67.9102" rx="4" ry="4" style="stroke:#000000;stroke-width:1;" width="129.2954" x="659.35" y="750.4203"/><rect fill="#C8E6C9" height="10" style="stroke:#000000;stroke-width:1;" width="15" x="768.6454" y="755.4203"/><rect fill="#C8E6C9" height="2" style="stroke:#000000;stroke-width:1;" width="4" x="766.6454" y="757.4203"/><rect fill="#C8E6C9" height="2" style="stroke:#000000;stroke-width:1;" width="4" x="766.6454" y="761.4203"/><text fill="#000000" font-family="'Segoe UI'" font-size="11" lengthAdjust="spacing" textLength="31.5176" x="680.35" y="787.0551">Agent</text><text fill="#000000" font-family="'Segoe UI'" font-size="11" lengthAdjust="spacing" textLength="3.4805" x="711.8676" y="787.0551">&#160;</text><text fill="#000000" font-family="'Segoe UI'" font-size="11" lengthAdjust="spacing" textLength="42.2974" x="715.348" y="787.0551">Context</text><text fill="#000000" font-family="'Segoe UI'" font-size="11" lengthAdjust="spacing" textLength="41.5723" x="680.35" y="800.0102">Window</text><text fill="#000000" font-family="'Segoe UI'" font-size="11" lengthAdjust="spacing" textLength="3.4805" x="721.9223" y="800.0102">&#160;</text><text fill="#000000" font-family="'Segoe UI'" font-size="11" lengthAdjust="spacing" textLength="28.3594" x="725.4027" y="800.0102">(LLM)</text></g><!--entity sandboxeng--><g class="entity" data-qualified-name="sandbox.sandboxeng" data-source-line="46" id="ent0017"><rect fill="#B2EBF2" height="67.9102" rx="4" ry="4" style="stroke:#000000;stroke-width:1;" width="140.9722" x="64.51" y="956.3303"/><rect fill="#B2EBF2" height="10" style="stroke:#000000;stroke-width:1;" width="15" x="185.4822" y="961.3303"/><rect fill="#B2EBF2" height="2" style="stroke:#000000;stroke-width:1;" width="4" x="183.4822" y="963.3303"/><rect fill="#B2EBF2" height="2" style="stroke:#000000;stroke-width:1;" width="4" x="183.4822" y="967.3303"/><text fill="#000000" font-family="'Segoe UI'" font-size="11" lengthAdjust="spacing" textLength="32.8979" x="85.51" y="992.9651">bwrap</text><text fill="#000000" font-family="'Segoe UI'" font-size="11" lengthAdjust="spacing" textLength="3.4805" x="118.4079" y="992.9651">&#160;</text><text fill="#000000" font-family="'Segoe UI'" font-size="11" lengthAdjust="spacing" textLength="5.7686" x="121.8884" y="992.9651">/</text><text fill="#000000" font-family="'Segoe UI'" font-size="11" lengthAdjust="spacing" textLength="3.4805" x="127.657" y="992.9651">&#160;</text><text fill="#000000" font-family="'Segoe UI'" font-size="11" lengthAdjust="spacing" textLength="34.0957" x="131.1374" y="992.9651">gVisor</text><text fill="#000000" font-family="'Segoe UI'" font-size="11" lengthAdjust="spacing" textLength="3.4805" x="165.2331" y="992.9651">&#160;</text><text fill="#000000" font-family="'Segoe UI'" font-size="11" lengthAdjust="spacing" textLength="5.7686" x="168.7136" y="992.9651">/</text><text fill="#000000" font-family="'Segoe UI'" font-size="11" lengthAdjust="spacing" textLength="42.5874" x="85.51" y="1005.9202">Seatbelt</text><text fill="#000000" font-family="'Segoe UI'" font-size="11" lengthAdjust="spacing" textLength="3.4805" x="128.0974" y="1005.9202">&#160;</text><text fill="#000000" font-family="'Segoe UI'" font-size="11" lengthAdjust="spacing" textLength="5.7686" x="131.5779" y="1005.9202">/</text><text fill="#000000" font-family="'Segoe UI'" font-size="11" lengthAdjust="spacing" textLength="3.4805" x="137.3464" y="1005.9202">&#160;</text><text fill="#000000" font-family="'Segoe UI'" font-size="11" lengthAdjust="spacing" textLength="32.3984" x="140.8269" y="1005.9202">WASM</text></g><g class="entity" data-qualified-name="sandbox.GMN18" data-source-line="48" id="ent0019"><path d="M26.69,1149.7803 L26.69,1228.5557 A4,4 0 0 0 30.69,1232.5557 L201.3111,1232.5557 A4,4 0 0 0 205.3111,1228.5557 L205.3111,1155.7803 L195.3111,1145.7803 L30.69,1145.7803 A4,4 0 0 0 26.69,1149.7803" fill="#FFFFFF" style="stroke:#000000;stroke-width:1;"/><path d="M195.3111,1145.7803 L195.3111,1153.7803 A2,2 0 0 0 197.3111,1155.7803 L205.3111,1155.7803 L195.3111,1145.7803" fill="#FFFFFF" style="stroke:#000000;stroke-width:1;"/><text fill="#000000" font-family="'Segoe UI'" font-size="11" lengthAdjust="spacing" textLength="43.103" x="38.69" y="1167.4151">Defense</text><text fill="#000000" font-family="'Segoe UI'" font-size="11" lengthAdjust="spacing" textLength="3.4805" x="81.793" y="1167.4151">&#160;</text><text fill="#000000" font-family="'Segoe UI'" font-size="11" lengthAdjust="spacing" textLength="34.7188" x="85.2735" y="1167.4151">layers:</text><text fill="#000000" font-family="'Segoe UI'" font-size="11" lengthAdjust="spacing" textLength="6.166" x="38.69" y="1180.3702">&#8226;</text><text fill="#000000" font-family="'Segoe UI'" font-size="11" lengthAdjust="spacing" textLength="3.4805" x="44.856" y="1180.3702">&#160;</text><text fill="#000000" font-family="'Segoe UI'" font-size="11" lengthAdjust="spacing" textLength="74.3198" x="48.3365" y="1180.3702">--unshare-all</text><text fill="#000000" font-family="'Segoe UI'" font-size="11" lengthAdjust="spacing" textLength="3.4805" x="122.6563" y="1180.3702">&#160;</text><text fill="#000000" font-family="'Segoe UI'" font-size="11" lengthAdjust="spacing" textLength="40.0522" x="126.1368" y="1180.3702">(bwrap)</text><text fill="#000000" font-family="'Segoe UI'" font-size="11" lengthAdjust="spacing" textLength="6.166" x="38.69" y="1193.3252">&#8226;</text><text fill="#000000" font-family="'Segoe UI'" font-size="11" lengthAdjust="spacing" textLength="3.4805" x="44.856" y="1193.3252">&#160;</text><text fill="#000000" font-family="'Segoe UI'" font-size="11" lengthAdjust="spacing" textLength="91.2441" x="48.3365" y="1193.3252">--network=none</text><text fill="#000000" font-family="'Segoe UI'" font-size="11" lengthAdjust="spacing" textLength="3.4805" x="139.5806" y="1193.3252">&#160;</text><text fill="#000000" font-family="'Segoe UI'" font-size="11" lengthAdjust="spacing" textLength="41.25" x="143.0611" y="1193.3252">(gVisor)</text><text fill="#000000" font-family="'Segoe UI'" font-size="11" lengthAdjust="spacing" textLength="6.166" x="38.69" y="1206.2803">&#8226;</text><text fill="#000000" font-family="'Segoe UI'" font-size="11" lengthAdjust="spacing" textLength="3.4805" x="44.856" y="1206.2803">&#160;</text><text fill="#000000" font-family="'Segoe UI'" font-size="11" lengthAdjust="spacing" textLength="29.2026" x="48.3365" y="1206.2803">(deny</text><text fill="#000000" font-family="'Segoe UI'" font-size="11" lengthAdjust="spacing" textLength="3.4805" x="77.5391" y="1206.2803">&#160;</text><text fill="#000000" font-family="'Segoe UI'" font-size="11" lengthAdjust="spacing" textLength="40.8687" x="81.0196" y="1206.2803">default)</text><text fill="#000000" font-family="'Segoe UI'" font-size="11" lengthAdjust="spacing" textLength="3.4805" x="121.8882" y="1206.2803">&#160;</text><text fill="#000000" font-family="'Segoe UI'" font-size="11" lengthAdjust="spacing" textLength="49.7417" x="125.3687" y="1206.2803">(Seatbelt)</text><text fill="#000000" font-family="'Segoe UI'" font-size="11" lengthAdjust="spacing" textLength="6.166" x="38.69" y="1219.2354">&#8226;</text><text fill="#000000" font-family="'Segoe UI'" font-size="11" lengthAdjust="spacing" textLength="3.4805" x="44.856" y="1219.2354">&#160;</text><text fill="#000000" font-family="'Segoe UI'" font-size="11" lengthAdjust="spacing" textLength="74.3682" x="48.3365" y="1219.2354">allowedHosts:</text><text fill="#000000" font-family="'Segoe UI'" font-size="11" lengthAdjust="spacing" textLength="3.4805" x="122.7046" y="1219.2354">&#160;</text><text fill="#000000" font-family="'Segoe UI'" font-size="11" lengthAdjust="spacing" textLength="7.1543" x="126.1851" y="1219.2354">[]</text><text fill="#000000" font-family="'Segoe UI'" font-size="11" lengthAdjust="spacing" textLength="3.4805" x="133.3394" y="1219.2354">&#160;</text><text fill="#000000" font-family="'Segoe UI'" font-size="11" lengthAdjust="spacing" textLength="39.5527" x="136.8199" y="1219.2354">(WASM)</text></g><!--entity shell--><g class="entity" data-qualified-name="hostos.shell" data-source-line="58" id="ent0022"><rect fill="#E1BEE7" height="67.9102" rx="4" ry="4" style="stroke:#000000;stroke-width:1;" width="117.6885" x="383.16" y="1155.2203"/><rect fill="#E1BEE7" height="10" style="stroke:#000000;stroke-width:1;" width="15" x="480.8485" y="1160.2203"/><rect fill="#E1BEE7" height="2" style="stroke:#000000;stroke-width:1;" width="4" x="478.8485" y="1162.2203"/><rect fill="#E1BEE7" height="2" style="stroke:#000000;stroke-width:1;" width="4" x="478.8485" y="1166.2203"/><text fill="#000000" font-family="'Segoe UI'" font-size="11" lengthAdjust="spacing" textLength="25.2388" x="404.16" y="1191.8551">Shell</text><text fill="#000000" font-family="'Segoe UI'" font-size="11" lengthAdjust="spacing" textLength="3.4805" x="429.3988" y="1191.8551">&#160;</text><text fill="#000000" font-family="'Segoe UI'" font-size="11" lengthAdjust="spacing" textLength="5.7686" x="432.8792" y="1191.8551">/</text><text fill="#000000" font-family="'Segoe UI'" font-size="11" lengthAdjust="spacing" textLength="3.4805" x="438.6478" y="1191.8551">&#160;</text><text fill="#000000" font-family="'Segoe UI'" font-size="11" lengthAdjust="spacing" textLength="27.7202" x="442.1283" y="1191.8551">Child</text><text fill="#000000" font-family="'Segoe UI'" font-size="11" lengthAdjust="spacing" textLength="52.0513" x="404.16" y="1204.8102">Processes</text></g><!--entity secrets--><g class="entity" data-qualified-name="hostos.secrets" data-source-line="59" id="ent0023"><path d="M561.28,1159.2403 C561.28,1149.2403 608.999,1149.2403 608.999,1149.2403 C608.999,1149.2403 656.718,1149.2403 656.718,1159.2403 L656.718,1219.1055 C656.718,1229.1055 608.999,1229.1055 608.999,1229.1055 C608.999,1229.1055 561.28,1229.1055 561.28,1219.1055 L561.28,1159.2403" fill="#E1BEE7" style="stroke:#000000;stroke-width:1;"/><path d="M561.28,1159.2403 C561.28,1169.2403 608.999,1169.2403 608.999,1169.2403 C608.999,1169.2403 656.718,1169.2403 656.718,1159.2403" fill="none" style="stroke:#000000;stroke-width:1;"/><text fill="#000000" font-family="'Segoe UI'" font-size="11" lengthAdjust="spacing" textLength="38.0381" x="577.28" y="1189.8751">Secrets</text><text fill="#000000" font-family="'Segoe UI'" font-size="11" lengthAdjust="spacing" textLength="34.3481" x="577.28" y="1202.8302">(/.ssh,</text><text fill="#000000" font-family="'Segoe UI'" font-size="11" lengthAdjust="spacing" textLength="3.4805" x="611.6281" y="1202.8302">&#160;</text><text fill="#000000" font-family="'Segoe UI'" font-size="11" lengthAdjust="spacing" textLength="25.6094" x="615.1086" y="1202.8302">.env,</text><text fill="#000000" font-family="'Segoe UI'" font-size="11" lengthAdjust="spacing" textLength="22.9238" x="577.28" y="1215.7852">AWS</text><text fill="#000000" font-family="'Segoe UI'" font-size="11" lengthAdjust="spacing" textLength="3.4805" x="600.2038" y="1215.7852">&#160;</text><text fill="#000000" font-family="'Segoe UI'" font-size="11" lengthAdjust="spacing" textLength="32.3716" x="603.6843" y="1215.7852">creds)</text></g><!--entity host--><g class="entity" data-qualified-name="hostos.host" data-source-line="60" id="ent0024"><rect fill="#E1BEE7" height="67.9102" rx="4" ry="4" style="stroke:#000000;stroke-width:1;" width="120.3579" x="716.82" y="1155.2203"/><rect fill="#E1BEE7" height="10" style="stroke:#000000;stroke-width:1;" width="15" x="817.1779" y="1160.2203"/><rect fill="#E1BEE7" height="2" style="stroke:#000000;stroke-width:1;" width="4" x="815.1779" y="1162.2203"/><rect fill="#E1BEE7" height="2" style="stroke:#000000;stroke-width:1;" width="4" x="815.1779" y="1166.2203"/><text fill="#000000" font-family="'Segoe UI'" font-size="11" lengthAdjust="spacing" textLength="24.562" x="737.82" y="1191.8551">Host</text><text fill="#000000" font-family="'Segoe UI'" font-size="11" lengthAdjust="spacing" textLength="3.4805" x="762.382" y="1191.8551">&#160;</text><text fill="#000000" font-family="'Segoe UI'" font-size="11" lengthAdjust="spacing" textLength="40.3154" x="765.8625" y="1191.8551">Process</text><text fill="#000000" font-family="'Segoe UI'" font-size="11" lengthAdjust="spacing" textLength="60.8384" x="737.82" y="1204.8102">(Node/Bun)</text></g><!--entity attacker--><g class="entity" data-qualified-name="attacker" data-source-line="15" id="ent0002"><ellipse cx="386.0018" cy="103.8203" fill="#FFD2D2" rx="8" ry="8" style="stroke:#000000;stroke-width:1;"/><path d="M386.0018,111.8203 L386.0018,138.8203 M373.0018,119.8203 L399.0018,119.8203 M386.0018,138.8203 L373.0018,153.8203 M386.0018,138.8203 L399.0018,153.8203" fill="none" style="stroke:#000000;stroke-width:1;"/><text fill="#000000" font-family="'Segoe UI'" font-size="11" font-weight="bold" lengthAdjust="spacing" textLength="47.7437" x="362.13" y="172.4551">Attacker</text></g><!--entity network--><g class="entity" data-qualified-name="network" data-source-line="63" id="ent0025"><path d="M572.8539,1347.4987 C575.071,1341.8433 580.8941,1339.7898 585.0953,1345.3292 C588.1577,1338.2372 594.3056,1338.4563 598.2907,1344.3948 C601.4006,1338.6194 604.9796,1337.9439 609.1769,1343.3347 C614.7564,1338.4193 619.5087,1338.683 623.1464,1345.6229 C626.312,1341.0143 631.0513,1340.3814 633.9305,1345.927 C638.7533,1341.0572 644.2919,1341.3932 647.3038,1348.0315 C653.9962,1351.5412 655.2584,1355.7637 649.7522,1361.4923 C656.0717,1362.7488 659.9881,1368.0407 654.5249,1373.8484 C658.9182,1380.6432 656.1763,1384.1214 649.102,1385.6442 C654.6559,1391.7233 653.8815,1395.9103 646.2089,1399.1578 C642.8049,1404.5922 638.6972,1403.8004 635.1137,1399.3595 C630.4808,1406.2219 626.3529,1405.8028 621.6504,1399.4302 C618.9674,1405.4755 613.1191,1405.1903 609.5229,1400.4577 C606.6602,1406.9236 600.5038,1407.4131 597.1363,1400.941 C592.7103,1405.5804 589.2702,1404.7946 585.9103,1399.7102 C581.7571,1404.8209 578.0582,1404.9478 573.8711,1399.7498 C565.9934,1398.5319 563.9443,1394.4061 568.4761,1387.6535 C559.9505,1385.3121 558.2011,1379.3637 564.3673,1372.9241 C560.6459,1366.1138 561.7206,1361.4214 570.1721,1360.1372 C565.3865,1355.4683 566.7048,1349.8474 572.8539,1347.4987" fill="#E1BEE7" style="stroke:#000000;stroke-width:1;"/><text fill="#000000" font-family="'Segoe UI'" font-size="11" lengthAdjust="spacing" textLength="44.5317" x="585.69" y="1370.1951">Network</text><text fill="#000000" font-family="'Segoe UI'" font-size="11" lengthAdjust="spacing" textLength="46.6211" x="585.69" y="1383.1502">Interface</text></g><!--link sandboxeng to GMN18--><g class="link" data-entity-1="ent0017" data-entity-2="ent0019" data-link-type="association" data-source-line="48" id="lnk20"><path d="M126.32,1024.4703 C123.45,1036.8603 120.58,1051.1103 119,1064.2403 C115.77,1091.0603 114.98,1121.3603 115.02,1145.3003" fill="none" id="sandboxeng-GMN18" style="stroke:#000000;stroke-width:1;stroke-dasharray:7,7;"/></g><!--link attacker to repo--><g class="link" data-entity-1="ent0002" data-entity-2="ent0004" data-link-type="dependency" data-source-line="66" id="lnk26"><path d="M386,181.1903 C386,224.1603 386,283.4403 386,320.4403" fill="none" id="attacker-to-repo" style="stroke:#666666;stroke-width:1;"/><polygon fill="#666666" points="386,326.4403,390,317.4403,386,321.4403,382,317.4403,386,326.4403" style="stroke:#666666;stroke-width:1;"/><text fill="#000000" font-family="'Segoe UI'" font-size="11" lengthAdjust="spacing" textLength="77.043" x="393" y="238.4151">Plants payload</text></g><!--link repo to workspace--><g class="link" data-entity-1="ent0004" data-entity-2="ent0008" data-link-type="dependency" data-source-line="67" id="lnk27"><path d="M356.63,384.9803 C342.01,401.1603 325.81,422.7203 318,445.5103 C312.9675,460.1978 310.3513,476.2534 309.2669,492.1142 C308.7247,500.0446 308.5655,507.9263 308.6787,515.5639 C308.707,517.4733 308.7523,519.3674 308.8129,521.2433 C308.8432,522.1812 308.8774,523.1145 308.9151,524.0429 C308.934,524.5071 308.6857,518.976 308.7063,519.4377" fill="none" id="repo-to-workspace" style="stroke:#4A90D9;stroke-width:1;"/><polygon fill="#4A90D9" points="308.9744,525.4317,312.5682,516.262,308.751,520.4367,304.5762,516.6195,308.9744,525.4317" style="stroke:#4A90D9;stroke-width:1;"/><text fill="#000000" font-family="'Segoe UI'" font-size="11" lengthAdjust="spacing" textLength="46.1592" x="325" y="469.6451">git clone</text></g><!--link configs to loader--><g class="link" data-entity-1="ent0009" data-entity-2="ent0014" data-link-type="dependency" data-source-line="68" id="lnk28"><path d="M428.97,617.6103 C413.62,631.5103 393.58,647.4103 373,657.4203 C358.65,664.4003 347.95,652.9403 338,665.4203 C330.8,674.4503 330.15,682.9403 338,691.4203 C353.75,708.4303 420.68,690.3303 442,699.4203 C467.97,710.4903 487.5396,727.3307 504.6296,745.6707" fill="none" id="configs-to-loader" style="stroke:#4A90D9;stroke-width:1;"/><polygon fill="#4A90D9" points="508.72,750.0603,505.5108,740.749,505.3113,746.4023,499.658,746.2029,508.72,750.0603" style="stroke:#4A90D9;stroke-width:1;"/><text fill="#000000" font-family="'Segoe UI'" font-size="11" lengthAdjust="spacing" textLength="68.0088" x="345" y="683.0551">Loads config</text></g><!--link configs to loader--><g class="link" data-entity-1="ent0009" data-entity-2="ent0014" data-link-type="dependency" data-source-line="89" id="lnk41"><path d="M462.86,617.7503 C467.62,638.5503 475.16,667.2803 485,691.4203 C493.27,711.7003 501.9306,728.0189 512.0606,745.1089" fill="none" id="configs-to-loader-1" style="stroke:#B71C1C;stroke-width:1;stroke-dasharray:7,7;"/><polygon fill="#B71C1C" points="515.12,750.2703,513.9718,740.4886,512.5705,745.9691,507.09,744.5678,515.12,750.2703" style="stroke:#B71C1C;stroke-width:1;"/><text fill="#000000" font-family="'Segoe UI'" font-size="11" lengthAdjust="spacing" textLength="123.8789" x="492" y="683.0551">Trust NOT re-validated</text></g><!--link source to agent--><g class="link" data-entity-1="ent0011" data-entity-2="ent0015" data-link-type="dependency" data-source-line="69" id="lnk29"><path d="M873.55,617.6603 C841.89,652.7403 791.9201,708.1162 758.2001,745.4762" fill="none" id="source-to-agent" style="stroke:#4A90D9;stroke-width:1;"/><polygon fill="#4A90D9" points="754.18,749.9303,763.1795,745.9293,757.5301,746.2186,757.2408,740.5691,754.18,749.9303" style="stroke:#4A90D9;stroke-width:1;"/><text fill="#000000" font-family="'Segoe UI'" font-size="11" lengthAdjust="spacing" textLength="101.5405" x="834.17" y="683.0551">Indexes workspace</text></g><!--link source to agent--><g class="link" data-entity-1="ent0011" data-entity-2="ent0015" data-link-type="dependency" data-source-line="83" id="lnk37"><path d="M932.94,617.8903 C953.64,638.7603 973.27,667.5103 957,691.4203 C919.63,746.3403 849.8228,767.5008 794.8228,776.4108" fill="none" id="source-to-agent-1" style="stroke:#9C27B0;stroke-width:1;stroke-dasharray:7,7;"/><polygon fill="#9C27B0" points="788.9,777.3703,798.4238,779.8796,793.8357,776.5707,797.1445,771.9826,788.9,777.3703" style="stroke:#9C27B0;stroke-width:1;"/><text fill="#000000" font-family="'Segoe UI'" font-size="11" lengthAdjust="spacing" textLength="112.8896" x="970.02" y="683.0551">[V3] Prompt Injection</text></g><!--link executor to sandboxeng--><g class="link" data-entity-1="ent0013" data-entity-2="ent0017" data-link-type="dependency" data-source-line="70" id="lnk30"><path d="M281.29,808.3303 C254.57,820.1203 224.91,836.6403 203,858.3303 C175.24,885.8203 158.5049,921.4042 147.8249,950.2242" fill="none" id="executor-to-sandboxeng" style="stroke:#4A90D9;stroke-width:1;"/><polygon fill="#4A90D9" points="145.74,955.8503,152.6181,948.8011,147.4774,951.1619,145.1166,946.0212,145.74,955.8503" style="stroke:#4A90D9;stroke-width:1;"/><text fill="#000000" font-family="'Segoe UI'" font-size="11" lengthAdjust="spacing" textLength="50.8052" x="216.7407" y="875.9651">Tool calls</text><text fill="#000000" font-family="'Segoe UI'" font-size="11" lengthAdjust="spacing" textLength="64.2866" x="210" y="888.9202">via sandbox</text></g><!--link sandboxeng to shell--><g class="link" data-entity-1="ent0017" data-entity-2="ent0022" data-link-type="dependency" data-source-line="71" id="lnk31"><path d="M137.95,1024.3703 C141.74,1046.4403 150.37,1074.2303 170,1090.2403 C190.17,1106.6803 202.9,1091.3603 228,1098.2403 C282.22,1113.1003 335.4691,1135.8986 377.6491,1155.9086" fill="none" id="sandboxeng-to-shell" style="stroke:#4A90D9;stroke-width:1;"/><polygon fill="#4A90D9" points="383.07,1158.4803,376.653,1151.0089,378.5526,1156.3373,373.2242,1158.2368,383.07,1158.4803" style="stroke:#4A90D9;stroke-width:1;"/><text fill="#000000" font-family="'Segoe UI'" font-size="11" lengthAdjust="spacing" textLength="97.7754" x="177" y="1081.8751">Isolated execution</text></g><!--link configs to executor--><g class="link" data-entity-1="ent0009" data-entity-2="ent0013" data-link-type="dependency" data-source-line="74" id="lnk32"><path d="M431.09,617.6803 C415.76,632.3503 395.06,648.9503 373,657.4203 C357.31,663.4403 233.56,653.2303 222,665.4203 C191.92,697.1403 231.8923,728.3825 276.1323,751.7025" fill="none" id="configs-to-executor" style="stroke:#FF0000;stroke-width:1;stroke-dasharray:7,7;"/><polygon fill="#FF0000" points="281.44,754.5003,275.3436,746.7651,277.0169,752.1688,271.6132,753.842,281.44,754.5003" style="stroke:#FF0000;stroke-width:1;"/><text fill="#000000" font-family="'Segoe UI'" font-size="11" lengthAdjust="spacing" textLength="81.2163" x="229" y="683.0551">[V1] Zero-Click</text></g><!--link executor to shell--><g class="link" data-entity-1="ent0013" data-entity-2="ent0022" data-link-type="dependency" data-source-line="75" id="lnk33"><path d="M343.93,818.5003 C340.59,865.2503 338,952.8403 357,1024.2403 C369.86,1072.5703 395.3684,1117.8213 415.8684,1149.7513" fill="none" id="executor-to-shell" style="stroke:#FF0000;stroke-width:1;stroke-dasharray:7,7;"/><polygon fill="#FF0000" points="419.11,1154.8003,417.6136,1145.0658,416.4087,1150.5928,410.8816,1149.3879,419.11,1154.8003" style="stroke:#FF0000;stroke-width:1;"/><text fill="#000000" font-family="'Segoe UI'" font-size="11" lengthAdjust="spacing" textLength="66.1611" x="378.7974" y="988.4151">MCP spawns</text><text fill="#000000" font-family="'Segoe UI'" font-size="11" lengthAdjust="spacing" textLength="95.7559" x="364" y="1001.3702">OUTSIDE sandbox</text></g><!--link shell to network--><g class="link" data-entity-1="ent0022" data-entity-2="ent0025" data-link-type="dependency" data-source-line="76" id="lnk34"><path d="M472.63,1223.4303 C502.67,1256.0503 544.1453,1301.0969 574.2153,1333.7469" fill="none" id="shell-to-network" style="stroke:#FF0000;stroke-width:1;stroke-dasharray:7,7;"/><polygon fill="#FF0000" points="578.28,1338.1603,575.1253,1328.8304,574.8928,1334.4825,569.2407,1334.25,578.28,1338.1603" style="stroke:#FF0000;stroke-width:1;"/><text fill="#000000" font-family="'Segoe UI'" font-size="11" lengthAdjust="spacing" textLength="69.5449" x="547.46" y="1290.1951">Reverse shell</text></g><!--link rules to loader--><g class="link" data-entity-1="ent0010" data-entity-2="ent0014" data-link-type="dependency" data-source-line="79" id="lnk35"><path d="M669.59,617.8503 C661.73,639.2203 649.2,668.6303 633,691.4203 C617.54,713.1703 600.9049,729.9786 582.3049,746.2586" fill="none" id="rules-to-loader" style="stroke:#FF6600;stroke-width:1;stroke-dasharray:7,7;"/><polygon fill="#FF6600" points="577.79,750.2103,587.1968,747.2926,581.5524,746.9172,581.9278,741.2728,577.79,750.2103" style="stroke:#FF6600;stroke-width:1;"/><text fill="#000000" font-family="'Segoe UI'" font-size="11" lengthAdjust="spacing" textLength="105.2305" x="654.39" y="683.0551">[V2] Race Condition</text></g><!--link loader to shell--><g class="link" data-entity-1="ent0014" data-entity-2="ent0022" data-link-type="dependency" data-source-line="80" id="lnk36"><path d="M528.23,818.6803 C510.54,894.4503 468.8335,1073.1773 451.1435,1148.9873" fill="none" id="loader-to-shell" style="stroke:#FF6600;stroke-width:1;stroke-dasharray:7,7;"/><polygon fill="#FF6600" points="449.78,1154.8303,455.7205,1146.9747,450.9162,1149.9611,447.9298,1145.1568,449.78,1154.8303" style="stroke:#FF6600;stroke-width:1;"/><text fill="#000000" font-family="'Segoe UI'" font-size="11" lengthAdjust="spacing" textLength="68.4438" x="514.35" y="988.4151">Fires BEFORE</text><text fill="#000000" font-family="'Segoe UI'" font-size="11" lengthAdjust="spacing" textLength="61.6172" x="517.7633" y="1001.3702">trust dialog</text></g><!--link agent to secrets--><g class="link" data-entity-1="ent0015" data-entity-2="ent0023" data-link-type="dependency" data-source-line="84" id="lnk38"><path d="M714.49,818.6803 C693.4,892.5703 644.4176,1064.1309 621.8376,1143.2009" fill="none" id="agent-to-secrets" style="stroke:#9C27B0;stroke-width:1;stroke-dasharray:7,7;"/><polygon fill="#9C27B0" points="620.19,1148.9703,626.5076,1141.4146,621.563,1144.1625,618.8151,1139.2179,620.19,1148.9703" style="stroke:#9C27B0;stroke-width:1;"/><text fill="#000000" font-family="'Segoe UI'" font-size="11" lengthAdjust="spacing" textLength="57.2988" x="695.95" y="994.9151">Reads .env</text></g><!--link host to network--><g class="link" data-entity-1="ent0024" data-entity-2="ent0025" data-link-type="dependency" data-source-line="85" id="lnk39"><path d="M746.19,1223.4303 C715.97,1256.0503 674.2278,1301.109 643.9778,1333.759" fill="none" id="host-to-network" style="stroke:#9C27B0;stroke-width:1;stroke-dasharray:7,7;"/><polygon fill="#9C27B0" points="639.9,1338.1603,648.9509,1334.2769,643.2982,1334.4925,643.0825,1328.8398,639.9,1338.1603" style="stroke:#9C27B0;stroke-width:1;"/><text fill="#000000" font-family="'Segoe UI'" font-size="11" lengthAdjust="spacing" textLength="80.3193" x="705.04" y="1290.1951">Exfiltrates data</text></g><!--link repo to configs--><g class="link" data-entity-1="ent0004" data-entity-2="ent0009" data-link-type="dependency" data-source-line="88" id="lnk40"><path d="M394.71,384.9503 C408.37,429.3703 432.9258,509.2155 446.5658,553.5555" fill="none" id="repo-to-configs" style="stroke:#B71C1C;stroke-width:1;stroke-dasharray:7,7;"/><polygon fill="#B71C1C" points="448.33,559.2903,449.507,549.512,446.8599,554.5113,441.8606,551.8642,448.33,559.2903" style="stroke:#B71C1C;stroke-width:1;"/><text fill="#000000" font-family="'Segoe UI'" font-size="11" lengthAdjust="spacing" textLength="71.0166" x="457.1686" y="463.1451">[V4] TOCTOU</text><text fill="#000000" font-family="'Segoe UI'" font-size="11" lengthAdjust="spacing" textLength="124.0938" x="430.63" y="476.1002">git pull modifies config</text></g><g class="legend" data-source-line="92"><rect fill="none" height="196.9297" rx="4" ry="4" style="stroke:#000000;stroke-width:1;" width="495.3291" x="582.5805" y="1418.4131"/><text fill="#000000" font-family="'Segoe UI'" font-size="14" font-weight="bold" lengthAdjust="spacing" textLength="38.7734" x="604.1948" y="1450.9483">Color</text><text fill="#000000" font-family="'Segoe UI'" font-size="14" font-weight="bold" lengthAdjust="spacing" textLength="97.2275" x="664.1968" y="1450.9483">Attack Vector</text><text fill="#000000" font-family="'Segoe UI'" font-size="14" font-weight="bold" lengthAdjust="spacing" textLength="60.5186" x="908.8032" y="1450.9483">Example</text><rect fill="#FF0000" height="28.4883" style="stroke:none;stroke-width:1;" width="60.002" x="593.5805" y="1459.9014"/><text fill="#000000" font-family="'Segoe UI'" font-size="14" lengthAdjust="spacing" textLength="4.4297" x="599.5805" y="1479.4365">&#160;</text><text fill="#000000" font-family="'Segoe UI'" font-size="14" lengthAdjust="spacing" textLength="213.8213" x="664.0122" y="1479.4365">V1: Zero-Click Config Autoload</text><text fill="#000000" font-family="'Segoe UI'" font-size="14" lengthAdjust="spacing" textLength="97.7813" x="908.6186" y="1479.4365">OpenAI Codex</text><rect fill="#FF6600" height="28.4883" style="stroke:none;stroke-width:1;" width="60.002" x="593.5805" y="1488.3897"/><text fill="#000000" font-family="'Segoe UI'" font-size="14" lengthAdjust="spacing" textLength="4.4297" x="599.5805" y="1507.9248">&#160;</text><text fill="#000000" font-family="'Segoe UI'" font-size="14" lengthAdjust="spacing" textLength="155.6885" x="664.0122" y="1507.9248">V2: Init Race Condition</text><text fill="#000000" font-family="'Segoe UI'" font-size="14" lengthAdjust="spacing" textLength="125.7061" x="908.6186" y="1507.9248">Google Gemini CLI</text><rect fill="#9C27B0" height="28.4883" style="stroke:none;stroke-width:1;" width="60.002" x="593.5805" y="1516.8779"/><text fill="#000000" font-family="'Segoe UI'" font-size="14" lengthAdjust="spacing" textLength="4.4297" x="599.5805" y="1536.4131">&#160;</text><text fill="#000000" font-family="'Segoe UI'" font-size="14" lengthAdjust="spacing" textLength="223.7471" x="664.0122" y="1536.4131">V3: Adversarial Context Injection</text><text fill="#000000" font-family="'Segoe UI'" font-size="14" lengthAdjust="spacing" textLength="87.7188" x="908.6186" y="1536.4131">Amazon Kiro</text><rect fill="#B71C1C" height="28.4883" style="stroke:none;stroke-width:1;" width="60.002" x="593.5805" y="1545.3662"/><text fill="#000000" font-family="'Segoe UI'" font-size="14" lengthAdjust="spacing" textLength="4.4297" x="599.5805" y="1564.9014">&#160;</text><text fill="#000000" font-family="'Segoe UI'" font-size="14" lengthAdjust="spacing" textLength="206.4932" x="664.0122" y="1564.9014">V4: TOCTOU Trust Persistence</text><text fill="#000000" font-family="'Segoe UI'" font-size="14" lengthAdjust="spacing" textLength="147.8613" x="908.6186" y="1564.9014">Claude Code / Cursor</text><rect fill="#4A90D9" height="28.4883" style="stroke:none;stroke-width:1;" width="60.002" x="593.5805" y="1573.8545"/><text fill="#000000" font-family="'Segoe UI'" font-size="14" lengthAdjust="spacing" textLength="4.4297" x="599.5805" y="1593.3897">&#160;</text><text fill="#000000" font-family="'Segoe UI'" font-size="14" lengthAdjust="spacing" textLength="116.4707" x="664.0122" y="1593.3897">Normal data flow</text><text fill="#000000" font-family="'Segoe UI'" font-size="14" lengthAdjust="spacing" textLength="14" x="908.6186" y="1593.3897">&#8212;</text><line style="stroke:#000000;stroke-width:1;" x1="593.5805" x2="1066.9096" y1="1431.4131" y2="1431.4131"/><line style="stroke:#000000;stroke-width:1;" x1="593.5805" x2="1066.9096" y1="1459.9014" y2="1459.9014"/><line style="stroke:#000000;stroke-width:1;" x1="593.5805" x2="1066.9096" y1="1488.3897" y2="1488.3897"/><line style="stroke:#000000;stroke-width:1;" x1="593.5805" x2="1066.9096" y1="1516.8779" y2="1516.8779"/><line style="stroke:#000000;stroke-width:1;" x1="593.5805" x2="1066.9096" y1="1545.3662" y2="1545.3662"/><line style="stroke:#000000;stroke-width:1;" x1="593.5805" x2="1066.9096" y1="1573.8545" y2="1573.8545"/><line style="stroke:#000000;stroke-width:1;" x1="593.5805" x2="1066.9096" y1="1602.3428" y2="1602.3428"/><line style="stroke:#000000;stroke-width:1;" x1="593.5805" x2="593.5805" y1="1431.4131" y2="1602.3428"/><line style="stroke:#000000;stroke-width:1;" x1="653.5825" x2="653.5825" y1="1431.4131" y2="1602.3428"/><line style="stroke:#000000;stroke-width:1;" x1="898.1889" x2="898.1889" y1="1431.4131" y2="1602.3428"/><line style="stroke:#000000;stroke-width:1;" x1="1066.9096" x2="1066.9096" y1="1431.4131" y2="1602.3428"/></g><?plantuml-src ZLTTKkCu47xtANf9rMoWW8G00L8xK-KaDaCD42e9KBM41s4hZWT7SaaAFxFPhJd4d62FDYVPbcGx3aDO20-srFrrzwV-aNzJ4pgba2OaPewyZrbA19d27Gdk8y5dBEpmX0ke-9x-bIH2EYQpHFcSgNE226i36d4AboThhmiDucyKTdPAcncyO5J0OMaz9M4OimYQfJN6Goff2irw6O2mUxrukBH80qLObD25qTtIzgCWwNKSgWaqwdN7KR5AA6nik2VGuSQg6r6cO3WHb2WuGxC9_Fp-0xf44V0J_WZTc4I8jB4nOhNQ6KbJhOKimXwSnIoCY0Z1LGe9X2lqXGi9RY2ub30KCwcWhSCc8gQoLdESt-7dZ-_u3zwJeeAH18LH9rjrY7bPGmSD8XKR6sj0993i5G_6xpQwZHBGafLds6bXC1HEc8QdAWTEKPr4U6pBuil2nbISQw8fVzUhmryEW4ItZFePIU8WvZCvOiUnWZvDkOnnyzde2dpLUbwztK0jnXK54KSJ1NniDd4Ha7ccCFraoxpz_FulR0T8_5Cju6mSHzkAJvF5LaIdCOjhaYg5pCljhvApnUuqI9TNtF212eby8xLXB81XiifYzuB7A4n32FXq6YkzGLbe77N-Nargm_9qpSMzH2RfkrWjf0qrZuLknTlr6txNy1hm9C6aYJcJiDOnuOCV9nJfhHQnRKA9c7M3PXSaLDhjhkUtNoArwOGyn9X9_Lc65So4v4BeLuHBo2oaszFGWfdLLL03FXFez0Ui0w6Ha5EJvS-MsKtOfkp1uaWhcWEzmUUkPGYhyAJhlOjCAseJDDGS7lhxtb76uJJ5CyKgNXjodg2ZCk2O1CyZzW7BZ0OpTDTeqkm5Afr3hzavMbREw3_b9AH2wre_iCDftSGilwvfUuXEQ_gaHkmQsm8sZkhfwPabXfZzNFKDNlPji0F2mZl-1DKk7LCcwVgxACgqx55a21MlxX_uxakUxdHRX1f4LrWE0ceZDi3sTqSJXOlNxk2i34AntrNQ3Q_j5pLznnNceYxgXOofiSnXICWpLk6YmBUsPanEYA1R94cWQkolbtQnt-W2-SZGGQXQjnRxrP2ovtouh4CrTtOXWQZyaOQVkLIo1JUtKDLHhB-plFSiWLeRUeDtaPt96fuc-ConWB1RxllxBxaUJ2Y6N8FE94x24RiGFA1IKcafDfiLRwVjUGUe5-BOkIFIZDT0KAKhxf_QjfGJMsYR8-PU3m2tGfaLdPKhOPHi6oypYuXqZbssrfwnzSBjGWtP2H8-2s7jt1x5Y9cfCCxxLtP2XSA2p7CkfjXiYuafyNoJsI9fYzcrTLDfDfktMv_id6Z1HK8OkfwIPrrTZbb5eJttgDuzqdABfjc22CSDkiYeapU_9T6iFbkcVlC6wMGjQKdILcCBfnxE75hgp4xH7vRaIsM0PwyxJ83fXdm-n2JVT4f2oyhcWD6Ov0bHE7Yi3Uoj9GRTuT3jV84hhpFizVK4_vCAljN1INiFMLToqIyT8bJxNhUWjiI4xzVnR_EE9-5cID1igCqN4M5HNEtSbe2NWdrTEVVzh7C1ID0ZmvXxbyE1xjb5t4Pc9KIUDIsyAUYvJ2teojWR-bZqlKAVEOOUnfeggFRwxlcnLyHj9vQnscp-QhN8XPkhnkqBB2VRNAcSH-tZe9FGzlnUtninPNf0YBSA7gtq7iTQ-VgH3GICwAiTfr2zkEnVd2xYMAJdKQTnqFx5bpnLRwvsRtKTJzCIccDtLohddK5phqj2zm_75FrAbSLnUK_ZE542KrQQfhGoPjqxU_XqcJNL2mm_beeoZAlQTVjVe9omUOct3tOwEvsNvlDqrW7ltMQu8wOhFvtXeKpnoZx6YtHUtQNqVnsmI0JhstblYArdwm7liA4knb9GfpJIao9pCx5lsPWpDrXihFEFOB-Ey67fngyNl2SoJV7ROgu5uO-i7ZxXyzNR1Js7NagP_I2XJoLzdPn6VqLHpE6OS_pmWMDpGuREwKcXRO_NQFzlKix1dP9l-F0b5hn0i8GQXBUEU0uTSvaqtkifP-wP1OfjX1ebcn8wbs2ilwlcvZjhxY3HbcxdFm00?></g></svg>